<mxfile>
    <diagram id="SLxGER43Y7YhsbFUPY4q" name="Page-1">
        <mxGraphModel dx="683" dy="397" grid="1" gridSize="10" guides="1" tooltips="1" connect="1" arrows="1" fold="1" page="1" pageScale="1" pageWidth="827" pageHeight="1169" math="0" shadow="0">
            <root>
                <mxCell id="0"/>
                <mxCell id="1" parent="0"/>
                <mxCell id="183" value="&lt;font style=&quot;font-size: 20px&quot;&gt;M&lt;sub style=&quot;font-size: 20px;&quot;&gt;1&lt;/sub&gt;&lt;/font&gt;" style="whiteSpace=wrap;html=1;strokeColor=#000000;fontSize=20;opacity=80;labelPosition=center;verticalLabelPosition=bottom;align=center;verticalAlign=top;rounded=1;" vertex="1" parent="1">
                    <mxGeometry x="93" y="34.75" width="357" height="245.25" as="geometry"/>
                </mxCell>
                <mxCell id="184" value="&lt;font style=&quot;font-size: 20px&quot;&gt;D&lt;/font&gt;" style="whiteSpace=wrap;html=1;strokeColor=#000000;fontSize=20;opacity=80;labelPosition=center;verticalLabelPosition=bottom;align=center;verticalAlign=top;rounded=1;" vertex="1" parent="1">
                    <mxGeometry x="461.5" y="6.5" width="208.5" height="313.5" as="geometry"/>
                </mxCell>
                <mxCell id="191" style="edgeStyle=orthogonalEdgeStyle;jumpStyle=none;orthogonalLoop=1;jettySize=auto;html=1;exitX=0;exitY=0.5;exitDx=0;exitDy=0;entryX=0;entryY=0.5;entryDx=0;entryDy=0;shadow=0;startSize=6;endSize=6;strokeColor=#444444;fontSize=60;curved=1;" edge="1" parent="1" source="183" target="2">
                    <mxGeometry relative="1" as="geometry">
                        <Array as="points">
                            <mxPoint x="110" y="157"/>
                            <mxPoint x="110" y="92"/>
                        </Array>
                    </mxGeometry>
                </mxCell>
                <mxCell id="192" style="edgeStyle=orthogonalEdgeStyle;jumpStyle=none;orthogonalLoop=1;jettySize=auto;html=1;exitX=0;exitY=0.5;exitDx=0;exitDy=0;entryX=0;entryY=0.5;entryDx=0;entryDy=0;shadow=0;startSize=6;endSize=6;strokeColor=#444444;fontSize=60;curved=1;" edge="1" parent="1" source="183" target="66">
                    <mxGeometry relative="1" as="geometry">
                        <Array as="points">
                            <mxPoint x="110" y="157"/>
                            <mxPoint x="110" y="212"/>
                        </Array>
                    </mxGeometry>
                </mxCell>
                <mxCell id="116" style="edgeStyle=orthogonalEdgeStyle;jumpStyle=none;orthogonalLoop=1;jettySize=auto;html=1;entryX=0.5;entryY=0;entryDx=0;entryDy=0;shadow=0;startSize=6;endSize=6;strokeColor=#444444;curved=1;" edge="1" parent="1" source="2" target="115">
                    <mxGeometry relative="1" as="geometry"/>
                </mxCell>
                <mxCell id="2" value="A" style="whiteSpace=wrap;html=1;labelPosition=center;verticalLabelPosition=bottom;align=center;verticalAlign=top;rounded=1;" vertex="1" parent="1">
                    <mxGeometry x="131.5" y="52" width="280" height="80" as="geometry"/>
                </mxCell>
                <mxCell id="4" value="" style="whiteSpace=wrap;html=1;fillColor=#d5e8d4;strokeColor=#82b366;rounded=1;" vertex="1" parent="1">
                    <mxGeometry x="141.5" y="61.5" width="40" height="40" as="geometry"/>
                </mxCell>
                <mxCell id="12" value="" style="whiteSpace=wrap;html=1;fillColor=#d5e8d4;strokeColor=#82b366;rounded=1;" vertex="1" parent="1">
                    <mxGeometry x="144.5" y="64.5" width="40" height="40" as="geometry"/>
                </mxCell>
                <mxCell id="13" value="" style="whiteSpace=wrap;html=1;fillColor=#d5e8d4;strokeColor=#82b366;rounded=1;" vertex="1" parent="1">
                    <mxGeometry x="147.5" y="67.5" width="40" height="40" as="geometry"/>
                </mxCell>
                <mxCell id="14" value="" style="whiteSpace=wrap;html=1;fillColor=#d5e8d4;strokeColor=#82b366;rounded=1;" vertex="1" parent="1">
                    <mxGeometry x="150.5" y="70.5" width="40" height="40" as="geometry"/>
                </mxCell>
                <mxCell id="15" value="" style="whiteSpace=wrap;html=1;fillColor=#d5e8d4;strokeColor=#82b366;rounded=1;" vertex="1" parent="1">
                    <mxGeometry x="153.5" y="73.5" width="40" height="40" as="geometry"/>
                </mxCell>
                <mxCell id="16" value="" style="whiteSpace=wrap;html=1;fillColor=#d5e8d4;strokeColor=#82b366;rounded=1;" vertex="1" parent="1">
                    <mxGeometry x="156.5" y="76.5" width="40" height="40" as="geometry"/>
                </mxCell>
                <mxCell id="17" value="" style="whiteSpace=wrap;html=1;fillColor=#d5e8d4;strokeColor=#82b366;rounded=1;" vertex="1" parent="1">
                    <mxGeometry x="159.5" y="79.5" width="40" height="40" as="geometry"/>
                </mxCell>
                <mxCell id="18" value="" style="whiteSpace=wrap;html=1;fillColor=#d5e8d4;strokeColor=#82b366;rounded=1;" vertex="1" parent="1">
                    <mxGeometry x="162.5" y="82.5" width="40" height="40" as="geometry"/>
                </mxCell>
                <mxCell id="19" value="" style="whiteSpace=wrap;html=1;fillColor=#f8cecc;strokeColor=#b85450;rounded=1;" vertex="1" parent="1">
                    <mxGeometry x="211.5" y="66.5" width="30" height="30" as="geometry"/>
                </mxCell>
                <mxCell id="20" value="" style="whiteSpace=wrap;html=1;fillColor=#f8cecc;strokeColor=#b85450;rounded=1;" vertex="1" parent="1">
                    <mxGeometry x="214.5" y="69.5" width="30" height="30" as="geometry"/>
                </mxCell>
                <mxCell id="21" value="" style="whiteSpace=wrap;html=1;fillColor=#f8cecc;strokeColor=#b85450;rounded=1;" vertex="1" parent="1">
                    <mxGeometry x="217.5" y="72.5" width="30" height="30" as="geometry"/>
                </mxCell>
                <mxCell id="22" value="" style="whiteSpace=wrap;html=1;fillColor=#f8cecc;strokeColor=#b85450;rounded=1;" vertex="1" parent="1">
                    <mxGeometry x="220.5" y="75.5" width="30" height="30" as="geometry"/>
                </mxCell>
                <mxCell id="23" value="" style="whiteSpace=wrap;html=1;fillColor=#f8cecc;strokeColor=#b85450;rounded=1;" vertex="1" parent="1">
                    <mxGeometry x="223.5" y="78.5" width="30" height="30" as="geometry"/>
                </mxCell>
                <mxCell id="24" value="" style="whiteSpace=wrap;html=1;fillColor=#f8cecc;strokeColor=#b85450;rounded=1;" vertex="1" parent="1">
                    <mxGeometry x="226.5" y="81.5" width="30" height="30" as="geometry"/>
                </mxCell>
                <mxCell id="25" value="" style="whiteSpace=wrap;html=1;fillColor=#f8cecc;strokeColor=#b85450;rounded=1;" vertex="1" parent="1">
                    <mxGeometry x="229.5" y="84.5" width="30" height="30" as="geometry"/>
                </mxCell>
                <mxCell id="26" value="" style="whiteSpace=wrap;html=1;fillColor=#f8cecc;strokeColor=#b85450;rounded=1;" vertex="1" parent="1">
                    <mxGeometry x="232.5" y="87.5" width="30" height="30" as="geometry"/>
                </mxCell>
                <mxCell id="27" value="" style="whiteSpace=wrap;html=1;fillColor=#f8cecc;strokeColor=#b85450;rounded=1;" vertex="1" parent="1">
                    <mxGeometry x="361.5" y="70.5" width="20" height="20" as="geometry"/>
                </mxCell>
                <mxCell id="28" value="" style="whiteSpace=wrap;html=1;fillColor=#f8cecc;strokeColor=#b85450;rounded=1;" vertex="1" parent="1">
                    <mxGeometry x="364.5" y="73.5" width="20" height="20" as="geometry"/>
                </mxCell>
                <mxCell id="29" value="" style="whiteSpace=wrap;html=1;fillColor=#f8cecc;strokeColor=#b85450;rounded=1;" vertex="1" parent="1">
                    <mxGeometry x="367.5" y="76.5" width="20" height="20" as="geometry"/>
                </mxCell>
                <mxCell id="30" value="" style="whiteSpace=wrap;html=1;fillColor=#f8cecc;strokeColor=#b85450;rounded=1;" vertex="1" parent="1">
                    <mxGeometry x="370.5" y="79.5" width="20" height="20" as="geometry"/>
                </mxCell>
                <mxCell id="31" value="" style="whiteSpace=wrap;html=1;fillColor=#f8cecc;strokeColor=#b85450;rounded=1;" vertex="1" parent="1">
                    <mxGeometry x="373.5" y="82.5" width="20" height="20" as="geometry"/>
                </mxCell>
                <mxCell id="32" value="" style="whiteSpace=wrap;html=1;fillColor=#f8cecc;strokeColor=#b85450;rounded=1;" vertex="1" parent="1">
                    <mxGeometry x="376.5" y="85.5" width="20" height="20" as="geometry"/>
                </mxCell>
                <mxCell id="33" value="" style="whiteSpace=wrap;html=1;fillColor=#f8cecc;strokeColor=#b85450;rounded=1;" vertex="1" parent="1">
                    <mxGeometry x="379.5" y="88.5" width="20" height="20" as="geometry"/>
                </mxCell>
                <mxCell id="34" value="" style="whiteSpace=wrap;html=1;fillColor=#f8cecc;strokeColor=#b85450;rounded=1;" vertex="1" parent="1">
                    <mxGeometry x="382.5" y="91.5" width="20" height="20" as="geometry"/>
                </mxCell>
                <mxCell id="36" value="" style="whiteSpace=wrap;html=1;strokeColor=#666666;fillColor=#f5f5f5;fontColor=#333333;opacity=80;rounded=1;" vertex="1" parent="1">
                    <mxGeometry x="190.5" y="110.5" width="6" height="6" as="geometry"/>
                </mxCell>
                <mxCell id="37" value="" style="endArrow=none;html=1;exitX=0;exitY=0;exitDx=0;exitDy=0;strokeColor=#666666;opacity=80;curved=1;" edge="1" parent="1" source="36">
                    <mxGeometry width="50" height="50" relative="1" as="geometry">
                        <mxPoint x="201.5" y="152" as="sourcePoint"/>
                        <mxPoint x="251.5" y="102" as="targetPoint"/>
                    </mxGeometry>
                </mxCell>
                <mxCell id="39" value="" style="endArrow=none;html=1;exitX=1;exitY=1;exitDx=0;exitDy=0;strokeColor=#666666;endSize=6;startSize=6;jumpStyle=none;opacity=80;curved=1;" edge="1" parent="1" source="36">
                    <mxGeometry width="50" height="50" relative="1" as="geometry">
                        <mxPoint x="201.5" y="142" as="sourcePoint"/>
                        <mxPoint x="251.5" y="102" as="targetPoint"/>
                    </mxGeometry>
                </mxCell>
                <mxCell id="41" value="" style="whiteSpace=wrap;html=1;fillColor=#d5e8d4;strokeColor=#82b366;rounded=1;" vertex="1" parent="1">
                    <mxGeometry x="270.5" y="66.5" width="30" height="30" as="geometry"/>
                </mxCell>
                <mxCell id="42" value="" style="whiteSpace=wrap;html=1;fillColor=#d5e8d4;strokeColor=#82b366;rounded=1;" vertex="1" parent="1">
                    <mxGeometry x="273.5" y="69.5" width="30" height="30" as="geometry"/>
                </mxCell>
                <mxCell id="43" value="" style="whiteSpace=wrap;html=1;fillColor=#d5e8d4;strokeColor=#82b366;rounded=1;" vertex="1" parent="1">
                    <mxGeometry x="276.5" y="72.5" width="30" height="30" as="geometry"/>
                </mxCell>
                <mxCell id="44" value="" style="whiteSpace=wrap;html=1;fillColor=#d5e8d4;strokeColor=#82b366;rounded=1;" vertex="1" parent="1">
                    <mxGeometry x="279.5" y="75.5" width="30" height="30" as="geometry"/>
                </mxCell>
                <mxCell id="45" value="" style="whiteSpace=wrap;html=1;fillColor=#d5e8d4;strokeColor=#82b366;rounded=1;" vertex="1" parent="1">
                    <mxGeometry x="282.5" y="78.5" width="30" height="30" as="geometry"/>
                </mxCell>
                <mxCell id="46" value="" style="whiteSpace=wrap;html=1;fillColor=#d5e8d4;strokeColor=#82b366;rounded=1;" vertex="1" parent="1">
                    <mxGeometry x="285.5" y="81.5" width="30" height="30" as="geometry"/>
                </mxCell>
                <mxCell id="47" value="" style="whiteSpace=wrap;html=1;fillColor=#d5e8d4;strokeColor=#82b366;rounded=1;" vertex="1" parent="1">
                    <mxGeometry x="288.5" y="84.5" width="30" height="30" as="geometry"/>
                </mxCell>
                <mxCell id="48" value="" style="whiteSpace=wrap;html=1;fillColor=#d5e8d4;strokeColor=#82b366;rounded=1;" vertex="1" parent="1">
                    <mxGeometry x="291.5" y="87.5" width="30" height="30" as="geometry"/>
                </mxCell>
                <mxCell id="49" value="" style="whiteSpace=wrap;html=1;strokeColor=#666666;fillColor=#f5f5f5;fontColor=#333333;opacity=80;rounded=1;" vertex="1" parent="1">
                    <mxGeometry x="253.5" y="90.5" width="4" height="4" as="geometry"/>
                </mxCell>
                <mxCell id="53" value="" style="endArrow=none;html=1;exitX=1;exitY=0;exitDx=0;exitDy=0;strokeColor=#666666;opacity=80;curved=1;" edge="1" parent="1" source="49">
                    <mxGeometry width="50" height="50" relative="1" as="geometry">
                        <mxPoint x="251.5" y="120.00000000000003" as="sourcePoint"/>
                        <mxPoint x="312.5" y="111.5" as="targetPoint"/>
                    </mxGeometry>
                </mxCell>
                <mxCell id="54" value="" style="endArrow=none;html=1;exitX=0;exitY=1;exitDx=0;exitDy=0;strokeColor=#666666;opacity=80;curved=1;" edge="1" parent="1" source="49">
                    <mxGeometry width="50" height="50" relative="1" as="geometry">
                        <mxPoint x="257.5" y="126" as="sourcePoint"/>
                        <mxPoint x="312.5" y="111.5" as="targetPoint"/>
                    </mxGeometry>
                </mxCell>
                <mxCell id="55" value="" style="whiteSpace=wrap;html=1;strokeColor=#666666;fillColor=#f5f5f5;fontColor=#333333;opacity=80;rounded=1;" vertex="1" parent="1">
                    <mxGeometry x="230.5" y="69.5" width="4" height="4" as="geometry"/>
                </mxCell>
                <mxCell id="56" value="" style="endArrow=none;html=1;strokeColor=#666666;entryX=0;entryY=0;entryDx=0;entryDy=0;exitX=0;exitY=0;exitDx=0;exitDy=0;opacity=80;curved=1;" edge="1" parent="1" source="55" target="49">
                    <mxGeometry width="50" height="50" relative="1" as="geometry">
                        <mxPoint x="231.5" y="142" as="sourcePoint"/>
                        <mxPoint x="281.5" y="92" as="targetPoint"/>
                    </mxGeometry>
                </mxCell>
                <mxCell id="57" value="" style="endArrow=none;html=1;strokeColor=#666666;entryX=1;entryY=0;entryDx=0;entryDy=0;exitX=1;exitY=0;exitDx=0;exitDy=0;opacity=80;curved=1;" edge="1" parent="1" source="55" target="49">
                    <mxGeometry width="50" height="50" relative="1" as="geometry">
                        <mxPoint x="231.5" y="112" as="sourcePoint"/>
                        <mxPoint x="281.5" y="62" as="targetPoint"/>
                    </mxGeometry>
                </mxCell>
                <mxCell id="58" value="" style="endArrow=none;html=1;strokeColor=#666666;exitX=0;exitY=1;exitDx=0;exitDy=0;entryX=0;entryY=1;entryDx=0;entryDy=0;opacity=80;curved=1;" edge="1" parent="1" source="55" target="49">
                    <mxGeometry width="50" height="50" relative="1" as="geometry">
                        <mxPoint x="231.5" y="112" as="sourcePoint"/>
                        <mxPoint x="281.5" y="62" as="targetPoint"/>
                    </mxGeometry>
                </mxCell>
                <mxCell id="60" value="" style="whiteSpace=wrap;html=1;strokeColor=#666666;fillColor=#f5f5f5;fontColor=#333333;opacity=80;rounded=1;" vertex="1" parent="1">
                    <mxGeometry x="295.5" y="92.5" width="4" height="4" as="geometry"/>
                </mxCell>
                <mxCell id="61" value="..." style="text;html=1;fillColor=none;align=center;verticalAlign=middle;whiteSpace=wrap;opacity=80;rounded=1;" vertex="1" parent="1">
                    <mxGeometry x="341.5" y="80.5" width="10" height="20" as="geometry"/>
                </mxCell>
                <mxCell id="62" value="" style="endArrow=none;html=1;strokeColor=#666666;opacity=80;exitX=1;exitY=0;exitDx=0;exitDy=0;jumpStyle=none;shadow=0;curved=1;" edge="1" parent="1" source="60">
                    <mxGeometry width="50" height="50" relative="1" as="geometry">
                        <mxPoint x="300.5" y="88.5" as="sourcePoint"/>
                        <mxPoint x="332.5" y="98.5" as="targetPoint"/>
                    </mxGeometry>
                </mxCell>
                <mxCell id="63" value="" style="endArrow=none;html=1;strokeColor=#666666;opacity=80;exitX=0;exitY=1;exitDx=0;exitDy=0;curved=1;" edge="1" parent="1" source="60">
                    <mxGeometry width="50" height="50" relative="1" as="geometry">
                        <mxPoint x="300.5" y="102.5" as="sourcePoint"/>
                        <mxPoint x="332.5" y="102.5" as="targetPoint"/>
                    </mxGeometry>
                </mxCell>
                <mxCell id="190" style="edgeStyle=orthogonalEdgeStyle;jumpStyle=none;orthogonalLoop=1;jettySize=auto;html=1;entryX=0;entryY=0.5;entryDx=0;entryDy=0;shadow=0;startSize=6;endSize=6;strokeColor=#444444;fontSize=60;endArrow=none;endFill=0;curved=1;" edge="1" parent="1" source="64" target="183">
                    <mxGeometry relative="1" as="geometry">
                        <Array as="points">
                            <mxPoint x="71" y="158"/>
                        </Array>
                    </mxGeometry>
                </mxCell>
                <mxCell id="64" value="" style="outlineConnect=0;fontColor=#232F3E;gradientColor=none;fillColor=#D05C17;strokeColor=none;dashed=0;verticalLabelPosition=bottom;verticalAlign=top;align=center;html=1;fontSize=12;fontStyle=0;aspect=fixed;pointerEvents=1;shape=mxgraph.aws4.container_registry_image;opacity=80;rounded=1;" vertex="1" parent="1">
                    <mxGeometry x="10" y="127.5" width="59.5" height="59.5" as="geometry"/>
                </mxCell>
                <mxCell id="117" style="edgeStyle=orthogonalEdgeStyle;jumpStyle=none;orthogonalLoop=1;jettySize=auto;html=1;entryX=0.5;entryY=1;entryDx=0;entryDy=0;shadow=0;startSize=6;endSize=6;strokeColor=#444444;curved=1;" edge="1" parent="1" source="66" target="115">
                    <mxGeometry relative="1" as="geometry"/>
                </mxCell>
                <mxCell id="66" value="B" style="whiteSpace=wrap;html=1;labelPosition=center;verticalLabelPosition=bottom;align=center;verticalAlign=top;rounded=1;" vertex="1" parent="1">
                    <mxGeometry x="131.5" y="171.5" width="280" height="80" as="geometry"/>
                </mxCell>
                <mxCell id="67" value="" style="whiteSpace=wrap;html=1;fillColor=#d5e8d4;strokeColor=#82b366;rounded=1;" vertex="1" parent="1">
                    <mxGeometry x="141.5" y="181" width="40" height="40" as="geometry"/>
                </mxCell>
                <mxCell id="68" value="" style="whiteSpace=wrap;html=1;fillColor=#d5e8d4;strokeColor=#82b366;rounded=1;" vertex="1" parent="1">
                    <mxGeometry x="144.5" y="184" width="40" height="40" as="geometry"/>
                </mxCell>
                <mxCell id="69" value="" style="whiteSpace=wrap;html=1;fillColor=#d5e8d4;strokeColor=#82b366;rounded=1;" vertex="1" parent="1">
                    <mxGeometry x="147.5" y="187" width="40" height="40" as="geometry"/>
                </mxCell>
                <mxCell id="70" value="" style="whiteSpace=wrap;html=1;fillColor=#d5e8d4;strokeColor=#82b366;rounded=1;" vertex="1" parent="1">
                    <mxGeometry x="150.5" y="190" width="40" height="40" as="geometry"/>
                </mxCell>
                <mxCell id="71" value="" style="whiteSpace=wrap;html=1;fillColor=#d5e8d4;strokeColor=#82b366;rounded=1;" vertex="1" parent="1">
                    <mxGeometry x="153.5" y="193" width="40" height="40" as="geometry"/>
                </mxCell>
                <mxCell id="72" value="" style="whiteSpace=wrap;html=1;fillColor=#d5e8d4;strokeColor=#82b366;rounded=1;" vertex="1" parent="1">
                    <mxGeometry x="156.5" y="196" width="40" height="40" as="geometry"/>
                </mxCell>
                <mxCell id="73" value="" style="whiteSpace=wrap;html=1;fillColor=#d5e8d4;strokeColor=#82b366;rounded=1;" vertex="1" parent="1">
                    <mxGeometry x="159.5" y="199" width="40" height="40" as="geometry"/>
                </mxCell>
                <mxCell id="74" value="" style="whiteSpace=wrap;html=1;fillColor=#d5e8d4;strokeColor=#82b366;rounded=1;" vertex="1" parent="1">
                    <mxGeometry x="162.5" y="202" width="40" height="40" as="geometry"/>
                </mxCell>
                <mxCell id="75" value="" style="whiteSpace=wrap;html=1;fillColor=#f8cecc;strokeColor=#b85450;rounded=1;" vertex="1" parent="1">
                    <mxGeometry x="211.5" y="186" width="30" height="30" as="geometry"/>
                </mxCell>
                <mxCell id="76" value="" style="whiteSpace=wrap;html=1;fillColor=#f8cecc;strokeColor=#b85450;rounded=1;" vertex="1" parent="1">
                    <mxGeometry x="214.5" y="189" width="30" height="30" as="geometry"/>
                </mxCell>
                <mxCell id="77" value="" style="whiteSpace=wrap;html=1;fillColor=#f8cecc;strokeColor=#b85450;rounded=1;" vertex="1" parent="1">
                    <mxGeometry x="217.5" y="192" width="30" height="30" as="geometry"/>
                </mxCell>
                <mxCell id="78" value="" style="whiteSpace=wrap;html=1;fillColor=#f8cecc;strokeColor=#b85450;rounded=1;" vertex="1" parent="1">
                    <mxGeometry x="220.5" y="195" width="30" height="30" as="geometry"/>
                </mxCell>
                <mxCell id="79" value="" style="whiteSpace=wrap;html=1;fillColor=#f8cecc;strokeColor=#b85450;rounded=1;" vertex="1" parent="1">
                    <mxGeometry x="223.5" y="198" width="30" height="30" as="geometry"/>
                </mxCell>
                <mxCell id="80" value="" style="whiteSpace=wrap;html=1;fillColor=#f8cecc;strokeColor=#b85450;rounded=1;" vertex="1" parent="1">
                    <mxGeometry x="226.5" y="201" width="30" height="30" as="geometry"/>
                </mxCell>
                <mxCell id="81" value="" style="whiteSpace=wrap;html=1;fillColor=#f8cecc;strokeColor=#b85450;rounded=1;" vertex="1" parent="1">
                    <mxGeometry x="229.5" y="204" width="30" height="30" as="geometry"/>
                </mxCell>
                <mxCell id="82" value="" style="whiteSpace=wrap;html=1;fillColor=#f8cecc;strokeColor=#b85450;rounded=1;" vertex="1" parent="1">
                    <mxGeometry x="232.5" y="207" width="30" height="30" as="geometry"/>
                </mxCell>
                <mxCell id="83" value="" style="whiteSpace=wrap;html=1;fillColor=#f8cecc;strokeColor=#b85450;rounded=1;" vertex="1" parent="1">
                    <mxGeometry x="361.5" y="190" width="20" height="20" as="geometry"/>
                </mxCell>
                <mxCell id="84" value="" style="whiteSpace=wrap;html=1;fillColor=#f8cecc;strokeColor=#b85450;rounded=1;" vertex="1" parent="1">
                    <mxGeometry x="364.5" y="193" width="20" height="20" as="geometry"/>
                </mxCell>
                <mxCell id="85" value="" style="whiteSpace=wrap;html=1;fillColor=#f8cecc;strokeColor=#b85450;rounded=1;" vertex="1" parent="1">
                    <mxGeometry x="367.5" y="196" width="20" height="20" as="geometry"/>
                </mxCell>
                <mxCell id="86" value="" style="whiteSpace=wrap;html=1;fillColor=#f8cecc;strokeColor=#b85450;rounded=1;" vertex="1" parent="1">
                    <mxGeometry x="370.5" y="199" width="20" height="20" as="geometry"/>
                </mxCell>
                <mxCell id="87" value="" style="whiteSpace=wrap;html=1;fillColor=#f8cecc;strokeColor=#b85450;rounded=1;" vertex="1" parent="1">
                    <mxGeometry x="373.5" y="202" width="20" height="20" as="geometry"/>
                </mxCell>
                <mxCell id="88" value="" style="whiteSpace=wrap;html=1;fillColor=#f8cecc;strokeColor=#b85450;rounded=1;" vertex="1" parent="1">
                    <mxGeometry x="376.5" y="205" width="20" height="20" as="geometry"/>
                </mxCell>
                <mxCell id="89" value="" style="whiteSpace=wrap;html=1;fillColor=#f8cecc;strokeColor=#b85450;rounded=1;" vertex="1" parent="1">
                    <mxGeometry x="379.5" y="208" width="20" height="20" as="geometry"/>
                </mxCell>
                <mxCell id="90" value="" style="whiteSpace=wrap;html=1;fillColor=#f8cecc;strokeColor=#b85450;rounded=1;" vertex="1" parent="1">
                    <mxGeometry x="382.5" y="211" width="20" height="20" as="geometry"/>
                </mxCell>
                <mxCell id="91" value="" style="whiteSpace=wrap;html=1;strokeColor=#666666;fillColor=#f5f5f5;fontColor=#333333;opacity=80;rounded=1;" vertex="1" parent="1">
                    <mxGeometry x="190.5" y="230" width="6" height="6" as="geometry"/>
                </mxCell>
                <mxCell id="92" value="" style="endArrow=none;html=1;exitX=0;exitY=0;exitDx=0;exitDy=0;strokeColor=#666666;opacity=80;curved=1;" edge="1" parent="1" source="91">
                    <mxGeometry width="50" height="50" relative="1" as="geometry">
                        <mxPoint x="201.5" y="271.5" as="sourcePoint"/>
                        <mxPoint x="251.5" y="221.5" as="targetPoint"/>
                    </mxGeometry>
                </mxCell>
                <mxCell id="93" value="" style="endArrow=none;html=1;exitX=1;exitY=1;exitDx=0;exitDy=0;strokeColor=#666666;endSize=6;startSize=6;jumpStyle=none;opacity=80;curved=1;" edge="1" parent="1" source="91">
                    <mxGeometry width="50" height="50" relative="1" as="geometry">
                        <mxPoint x="201.5" y="261.5" as="sourcePoint"/>
                        <mxPoint x="251.5" y="221.5" as="targetPoint"/>
                    </mxGeometry>
                </mxCell>
                <mxCell id="94" value="" style="whiteSpace=wrap;html=1;fillColor=#d5e8d4;strokeColor=#82b366;rounded=1;" vertex="1" parent="1">
                    <mxGeometry x="270.5" y="186" width="30" height="30" as="geometry"/>
                </mxCell>
                <mxCell id="95" value="" style="whiteSpace=wrap;html=1;fillColor=#d5e8d4;strokeColor=#82b366;rounded=1;" vertex="1" parent="1">
                    <mxGeometry x="273.5" y="189" width="30" height="30" as="geometry"/>
                </mxCell>
                <mxCell id="96" value="" style="whiteSpace=wrap;html=1;fillColor=#d5e8d4;strokeColor=#82b366;rounded=1;" vertex="1" parent="1">
                    <mxGeometry x="276.5" y="192" width="30" height="30" as="geometry"/>
                </mxCell>
                <mxCell id="97" value="" style="whiteSpace=wrap;html=1;fillColor=#d5e8d4;strokeColor=#82b366;rounded=1;" vertex="1" parent="1">
                    <mxGeometry x="279.5" y="195" width="30" height="30" as="geometry"/>
                </mxCell>
                <mxCell id="98" value="" style="whiteSpace=wrap;html=1;fillColor=#d5e8d4;strokeColor=#82b366;rounded=1;" vertex="1" parent="1">
                    <mxGeometry x="282.5" y="198" width="30" height="30" as="geometry"/>
                </mxCell>
                <mxCell id="99" value="" style="whiteSpace=wrap;html=1;fillColor=#d5e8d4;strokeColor=#82b366;rounded=1;" vertex="1" parent="1">
                    <mxGeometry x="285.5" y="201" width="30" height="30" as="geometry"/>
                </mxCell>
                <mxCell id="100" value="" style="whiteSpace=wrap;html=1;fillColor=#d5e8d4;strokeColor=#82b366;rounded=1;" vertex="1" parent="1">
                    <mxGeometry x="288.5" y="204" width="30" height="30" as="geometry"/>
                </mxCell>
                <mxCell id="101" value="" style="whiteSpace=wrap;html=1;fillColor=#d5e8d4;strokeColor=#82b366;rounded=1;" vertex="1" parent="1">
                    <mxGeometry x="291.5" y="207" width="30" height="30" as="geometry"/>
                </mxCell>
                <mxCell id="102" value="" style="whiteSpace=wrap;html=1;strokeColor=#666666;fillColor=#f5f5f5;fontColor=#333333;opacity=80;rounded=1;" vertex="1" parent="1">
                    <mxGeometry x="253.5" y="210" width="4" height="4" as="geometry"/>
                </mxCell>
                <mxCell id="103" value="" style="endArrow=none;html=1;exitX=1;exitY=0;exitDx=0;exitDy=0;strokeColor=#666666;opacity=80;curved=1;" edge="1" parent="1" source="102">
                    <mxGeometry width="50" height="50" relative="1" as="geometry">
                        <mxPoint x="251.5" y="239.50000000000003" as="sourcePoint"/>
                        <mxPoint x="312.5" y="231" as="targetPoint"/>
                    </mxGeometry>
                </mxCell>
                <mxCell id="104" value="" style="endArrow=none;html=1;exitX=0;exitY=1;exitDx=0;exitDy=0;strokeColor=#666666;opacity=80;curved=1;" edge="1" parent="1" source="102">
                    <mxGeometry width="50" height="50" relative="1" as="geometry">
                        <mxPoint x="257.5" y="245.5" as="sourcePoint"/>
                        <mxPoint x="312.5" y="231" as="targetPoint"/>
                    </mxGeometry>
                </mxCell>
                <mxCell id="105" value="" style="whiteSpace=wrap;html=1;strokeColor=#666666;fillColor=#f5f5f5;fontColor=#333333;opacity=80;rounded=1;" vertex="1" parent="1">
                    <mxGeometry x="230.5" y="189" width="4" height="4" as="geometry"/>
                </mxCell>
                <mxCell id="106" value="" style="endArrow=none;html=1;strokeColor=#666666;entryX=0;entryY=0;entryDx=0;entryDy=0;exitX=0;exitY=0;exitDx=0;exitDy=0;opacity=80;curved=1;" edge="1" parent="1" source="105" target="102">
                    <mxGeometry width="50" height="50" relative="1" as="geometry">
                        <mxPoint x="231.5" y="261.5" as="sourcePoint"/>
                        <mxPoint x="281.5" y="211.5" as="targetPoint"/>
                    </mxGeometry>
                </mxCell>
                <mxCell id="107" value="" style="endArrow=none;html=1;strokeColor=#666666;entryX=1;entryY=0;entryDx=0;entryDy=0;exitX=1;exitY=0;exitDx=0;exitDy=0;opacity=80;curved=1;" edge="1" parent="1" source="105" target="102">
                    <mxGeometry width="50" height="50" relative="1" as="geometry">
                        <mxPoint x="231.5" y="231.5" as="sourcePoint"/>
                        <mxPoint x="281.5" y="181.5" as="targetPoint"/>
                    </mxGeometry>
                </mxCell>
                <mxCell id="108" value="" style="endArrow=none;html=1;strokeColor=#666666;exitX=0;exitY=1;exitDx=0;exitDy=0;entryX=0;entryY=1;entryDx=0;entryDy=0;opacity=80;curved=1;" edge="1" parent="1" source="105" target="102">
                    <mxGeometry width="50" height="50" relative="1" as="geometry">
                        <mxPoint x="231.5" y="231.5" as="sourcePoint"/>
                        <mxPoint x="281.5" y="181.5" as="targetPoint"/>
                    </mxGeometry>
                </mxCell>
                <mxCell id="109" value="" style="whiteSpace=wrap;html=1;strokeColor=#666666;fillColor=#f5f5f5;fontColor=#333333;opacity=80;rounded=1;" vertex="1" parent="1">
                    <mxGeometry x="295.5" y="212" width="4" height="4" as="geometry"/>
                </mxCell>
                <mxCell id="110" value="..." style="text;html=1;fillColor=none;align=center;verticalAlign=middle;whiteSpace=wrap;opacity=80;rounded=1;" vertex="1" parent="1">
                    <mxGeometry x="341.5" y="200" width="10" height="20" as="geometry"/>
                </mxCell>
                <mxCell id="111" value="" style="endArrow=none;html=1;strokeColor=#666666;opacity=80;exitX=1;exitY=0;exitDx=0;exitDy=0;jumpStyle=none;shadow=0;curved=1;" edge="1" parent="1" source="109">
                    <mxGeometry width="50" height="50" relative="1" as="geometry">
                        <mxPoint x="300.5" y="208" as="sourcePoint"/>
                        <mxPoint x="332.5" y="218" as="targetPoint"/>
                    </mxGeometry>
                </mxCell>
                <mxCell id="112" value="" style="endArrow=none;html=1;strokeColor=#666666;opacity=80;exitX=0;exitY=1;exitDx=0;exitDy=0;curved=1;" edge="1" parent="1" source="109">
                    <mxGeometry width="50" height="50" relative="1" as="geometry">
                        <mxPoint x="300.5" y="222" as="sourcePoint"/>
                        <mxPoint x="332.5" y="222" as="targetPoint"/>
                    </mxGeometry>
                </mxCell>
                <mxCell id="137" style="edgeStyle=orthogonalEdgeStyle;jumpStyle=none;orthogonalLoop=1;jettySize=auto;html=1;entryX=0;entryY=0.5;entryDx=0;entryDy=0;shadow=0;startSize=6;endSize=6;strokeColor=#444444;curved=1;" edge="1" parent="1" source="115" target="120">
                    <mxGeometry relative="1" as="geometry"/>
                </mxCell>
                <mxCell id="115" value="C" style="shape=sumEllipse;perimeter=ellipsePerimeter;whiteSpace=wrap;html=1;backgroundOutline=1;strokeColor=#000000;opacity=80;labelPosition=left;verticalLabelPosition=middle;align=right;verticalAlign=middle;rounded=1;" vertex="1" parent="1">
                    <mxGeometry x="421" y="139" width="25" height="25" as="geometry"/>
                </mxCell>
                <mxCell id="120" value="D&lt;sub&gt;1&lt;/sub&gt;" style="whiteSpace=wrap;html=1;strokeColor=#000000;opacity=50;labelPosition=center;verticalLabelPosition=bottom;align=center;verticalAlign=top;rounded=1;" vertex="1" parent="1">
                    <mxGeometry x="500" y="18.5" width="20" height="266" as="geometry"/>
                </mxCell>
                <mxCell id="121" value="" style="ellipse;whiteSpace=wrap;html=1;aspect=fixed;strokeColor=#000000;opacity=80;rounded=1;" vertex="1" parent="1">
                    <mxGeometry x="502.25" y="20.5" width="15.5" height="15.5" as="geometry"/>
                </mxCell>
                <mxCell id="122" value="" style="ellipse;whiteSpace=wrap;html=1;aspect=fixed;strokeColor=#000000;opacity=80;rounded=1;" vertex="1" parent="1">
                    <mxGeometry x="502.25" y="38" width="15.5" height="15.5" as="geometry"/>
                </mxCell>
                <mxCell id="123" value="" style="ellipse;whiteSpace=wrap;html=1;aspect=fixed;strokeColor=#000000;opacity=80;rounded=1;" vertex="1" parent="1">
                    <mxGeometry x="502.25" y="55.5" width="15.5" height="15.5" as="geometry"/>
                </mxCell>
                <mxCell id="124" value="" style="ellipse;whiteSpace=wrap;html=1;aspect=fixed;strokeColor=#000000;opacity=80;rounded=1;" vertex="1" parent="1">
                    <mxGeometry x="502.25" y="73" width="15.5" height="15.5" as="geometry"/>
                </mxCell>
                <mxCell id="125" value="" style="ellipse;whiteSpace=wrap;html=1;aspect=fixed;strokeColor=#000000;opacity=80;rounded=1;" vertex="1" parent="1">
                    <mxGeometry x="502.25" y="91" width="15.5" height="15.5" as="geometry"/>
                </mxCell>
                <mxCell id="126" value="" style="ellipse;whiteSpace=wrap;html=1;aspect=fixed;strokeColor=#000000;opacity=80;rounded=1;" vertex="1" parent="1">
                    <mxGeometry x="502.25" y="108.5" width="15.5" height="15.5" as="geometry"/>
                </mxCell>
                <mxCell id="127" value="" style="ellipse;whiteSpace=wrap;html=1;aspect=fixed;strokeColor=#000000;opacity=80;rounded=1;" vertex="1" parent="1">
                    <mxGeometry x="502.25" y="126" width="15.5" height="15.5" as="geometry"/>
                </mxCell>
                <mxCell id="128" value="" style="ellipse;whiteSpace=wrap;html=1;aspect=fixed;strokeColor=#000000;opacity=80;rounded=1;" vertex="1" parent="1">
                    <mxGeometry x="502.25" y="143.5" width="15.5" height="15.5" as="geometry"/>
                </mxCell>
                <mxCell id="129" value="" style="ellipse;whiteSpace=wrap;html=1;aspect=fixed;strokeColor=#000000;opacity=80;rounded=1;" vertex="1" parent="1">
                    <mxGeometry x="502.25" y="161" width="15.5" height="15.5" as="geometry"/>
                </mxCell>
                <mxCell id="130" value="" style="ellipse;whiteSpace=wrap;html=1;aspect=fixed;strokeColor=#000000;opacity=80;rounded=1;" vertex="1" parent="1">
                    <mxGeometry x="502.25" y="178.5" width="15.5" height="15.5" as="geometry"/>
                </mxCell>
                <mxCell id="131" value="" style="ellipse;whiteSpace=wrap;html=1;aspect=fixed;strokeColor=#000000;opacity=80;rounded=1;" vertex="1" parent="1">
                    <mxGeometry x="502.25" y="196" width="15.5" height="15.5" as="geometry"/>
                </mxCell>
                <mxCell id="132" value="" style="ellipse;whiteSpace=wrap;html=1;aspect=fixed;strokeColor=#000000;opacity=80;rounded=1;" vertex="1" parent="1">
                    <mxGeometry x="502.25" y="213.5" width="15.5" height="15.5" as="geometry"/>
                </mxCell>
                <mxCell id="133" value="" style="ellipse;whiteSpace=wrap;html=1;aspect=fixed;strokeColor=#000000;opacity=80;rounded=1;" vertex="1" parent="1">
                    <mxGeometry x="502.25" y="231.5" width="15.5" height="15.5" as="geometry"/>
                </mxCell>
                <mxCell id="134" value="" style="ellipse;whiteSpace=wrap;html=1;aspect=fixed;strokeColor=#000000;opacity=80;rounded=1;" vertex="1" parent="1">
                    <mxGeometry x="502.25" y="249" width="15.5" height="15.5" as="geometry"/>
                </mxCell>
                <mxCell id="135" value="" style="ellipse;whiteSpace=wrap;html=1;aspect=fixed;strokeColor=#000000;opacity=80;rounded=1;" vertex="1" parent="1">
                    <mxGeometry x="502.25" y="266.5" width="15.5" height="15.5" as="geometry"/>
                </mxCell>
                <mxCell id="139" value="D&lt;sub&gt;2&lt;/sub&gt;" style="whiteSpace=wrap;html=1;strokeColor=#000000;opacity=50;labelPosition=center;verticalLabelPosition=bottom;align=center;verticalAlign=top;rounded=1;" vertex="1" parent="1">
                    <mxGeometry x="550" y="62.5" width="20" height="178" as="geometry"/>
                </mxCell>
                <mxCell id="140" value="" style="ellipse;whiteSpace=wrap;html=1;aspect=fixed;strokeColor=#000000;opacity=80;rounded=1;" vertex="1" parent="1">
                    <mxGeometry x="552.25" y="64.5" width="15.5" height="15.5" as="geometry"/>
                </mxCell>
                <mxCell id="141" value="" style="ellipse;whiteSpace=wrap;html=1;aspect=fixed;strokeColor=#000000;opacity=80;rounded=1;" vertex="1" parent="1">
                    <mxGeometry x="552.25" y="82" width="15.5" height="15.5" as="geometry"/>
                </mxCell>
                <mxCell id="142" value="" style="ellipse;whiteSpace=wrap;html=1;aspect=fixed;strokeColor=#000000;opacity=80;rounded=1;" vertex="1" parent="1">
                    <mxGeometry x="552.25" y="99.5" width="15.5" height="15.5" as="geometry"/>
                </mxCell>
                <mxCell id="143" value="" style="ellipse;whiteSpace=wrap;html=1;aspect=fixed;strokeColor=#000000;opacity=80;rounded=1;" vertex="1" parent="1">
                    <mxGeometry x="552.25" y="117" width="15.5" height="15.5" as="geometry"/>
                </mxCell>
                <mxCell id="144" value="" style="ellipse;whiteSpace=wrap;html=1;aspect=fixed;strokeColor=#000000;opacity=80;rounded=1;" vertex="1" parent="1">
                    <mxGeometry x="552.25" y="135" width="15.5" height="15.5" as="geometry"/>
                </mxCell>
                <mxCell id="145" value="" style="ellipse;whiteSpace=wrap;html=1;aspect=fixed;strokeColor=#000000;opacity=80;rounded=1;" vertex="1" parent="1">
                    <mxGeometry x="552.25" y="152.5" width="15.5" height="15.5" as="geometry"/>
                </mxCell>
                <mxCell id="146" value="" style="ellipse;whiteSpace=wrap;html=1;aspect=fixed;strokeColor=#000000;opacity=80;rounded=1;" vertex="1" parent="1">
                    <mxGeometry x="552.25" y="170" width="15.5" height="15.5" as="geometry"/>
                </mxCell>
                <mxCell id="147" value="" style="ellipse;whiteSpace=wrap;html=1;aspect=fixed;strokeColor=#000000;opacity=80;rounded=1;" vertex="1" parent="1">
                    <mxGeometry x="552.25" y="187.5" width="15.5" height="15.5" as="geometry"/>
                </mxCell>
                <mxCell id="148" value="" style="ellipse;whiteSpace=wrap;html=1;aspect=fixed;strokeColor=#000000;opacity=80;rounded=1;" vertex="1" parent="1">
                    <mxGeometry x="552.25" y="205" width="15.5" height="15.5" as="geometry"/>
                </mxCell>
                <mxCell id="149" value="" style="ellipse;whiteSpace=wrap;html=1;aspect=fixed;strokeColor=#000000;opacity=80;rounded=1;" vertex="1" parent="1">
                    <mxGeometry x="552.25" y="222.5" width="15.5" height="15.5" as="geometry"/>
                </mxCell>
                <mxCell id="158" value="" style="endArrow=classic;html=1;shadow=0;exitX=1;exitY=0.5;exitDx=0;exitDy=0;entryX=0;entryY=0.5;entryDx=0;entryDy=0;strokeColor=#444444;curved=1;" edge="1" parent="1" source="134" target="149">
                    <mxGeometry width="50" height="50" relative="1" as="geometry">
                        <mxPoint x="517.7499999999975" y="283.25" as="sourcePoint"/>
                        <mxPoint x="530" y="170" as="targetPoint"/>
                    </mxGeometry>
                </mxCell>
                <mxCell id="159" value="" style="endArrow=classic;html=1;shadow=0;entryX=0;entryY=0.5;entryDx=0;entryDy=0;exitX=1;exitY=0.5;exitDx=0;exitDy=0;strokeColor=#444444;curved=1;" edge="1" parent="1" source="121" target="140">
                    <mxGeometry width="50" height="50" relative="1" as="geometry">
                        <mxPoint x="530" y="160" as="sourcePoint"/>
                        <mxPoint x="562.2500000000025" y="249" as="targetPoint"/>
                    </mxGeometry>
                </mxCell>
                <mxCell id="161" value="D&lt;sub&gt;3&lt;/sub&gt;" style="whiteSpace=wrap;html=1;strokeColor=#000000;opacity=50;labelPosition=center;verticalLabelPosition=bottom;align=center;verticalAlign=top;rounded=1;" vertex="1" parent="1">
                    <mxGeometry x="630" y="62.75" width="20" height="178" as="geometry"/>
                </mxCell>
                <mxCell id="162" value="" style="ellipse;whiteSpace=wrap;html=1;aspect=fixed;strokeColor=#000000;opacity=80;rounded=1;" vertex="1" parent="1">
                    <mxGeometry x="632.25" y="64.75" width="15.5" height="15.5" as="geometry"/>
                </mxCell>
                <mxCell id="163" value="" style="ellipse;whiteSpace=wrap;html=1;aspect=fixed;strokeColor=#000000;opacity=80;rounded=1;" vertex="1" parent="1">
                    <mxGeometry x="632.25" y="82.25" width="15.5" height="15.5" as="geometry"/>
                </mxCell>
                <mxCell id="164" value="" style="ellipse;whiteSpace=wrap;html=1;aspect=fixed;strokeColor=#000000;opacity=80;rounded=1;" vertex="1" parent="1">
                    <mxGeometry x="632.25" y="99.75" width="15.5" height="15.5" as="geometry"/>
                </mxCell>
                <mxCell id="165" value="" style="ellipse;whiteSpace=wrap;html=1;aspect=fixed;strokeColor=#000000;opacity=80;rounded=1;" vertex="1" parent="1">
                    <mxGeometry x="632.25" y="117.25" width="15.5" height="15.5" as="geometry"/>
                </mxCell>
                <mxCell id="166" value="" style="ellipse;whiteSpace=wrap;html=1;aspect=fixed;strokeColor=#000000;opacity=80;rounded=1;" vertex="1" parent="1">
                    <mxGeometry x="632.25" y="135.25" width="15.5" height="15.5" as="geometry"/>
                </mxCell>
                <mxCell id="167" value="" style="ellipse;whiteSpace=wrap;html=1;aspect=fixed;strokeColor=#000000;opacity=80;rounded=1;" vertex="1" parent="1">
                    <mxGeometry x="632.25" y="152.75" width="15.5" height="15.5" as="geometry"/>
                </mxCell>
                <mxCell id="168" value="" style="ellipse;whiteSpace=wrap;html=1;aspect=fixed;strokeColor=#000000;opacity=80;rounded=1;" vertex="1" parent="1">
                    <mxGeometry x="632.25" y="170.25" width="15.5" height="15.5" as="geometry"/>
                </mxCell>
                <mxCell id="169" value="" style="ellipse;whiteSpace=wrap;html=1;aspect=fixed;strokeColor=#000000;opacity=80;rounded=1;" vertex="1" parent="1">
                    <mxGeometry x="632.25" y="187.75" width="15.5" height="15.5" as="geometry"/>
                </mxCell>
                <mxCell id="170" value="" style="ellipse;whiteSpace=wrap;html=1;aspect=fixed;strokeColor=#000000;opacity=80;rounded=1;" vertex="1" parent="1">
                    <mxGeometry x="632.25" y="205.25" width="15.5" height="15.5" as="geometry"/>
                </mxCell>
                <mxCell id="171" value="" style="ellipse;whiteSpace=wrap;html=1;aspect=fixed;strokeColor=#000000;opacity=80;rounded=1;" vertex="1" parent="1">
                    <mxGeometry x="632.25" y="222.75" width="15.5" height="15.5" as="geometry"/>
                </mxCell>
                <mxCell id="172" value="..." style="text;html=1;fillColor=none;align=center;verticalAlign=middle;whiteSpace=wrap;opacity=80;rotation=0;fontSize=60;rounded=1;" vertex="1" parent="1">
                    <mxGeometry x="595" y="130.5" width="10" height="20" as="geometry"/>
                </mxCell>
                <mxCell id="174" value="" style="endArrow=classic;html=1;shadow=0;entryX=0;entryY=0.5;entryDx=0;entryDy=0;exitX=1;exitY=0.5;exitDx=0;exitDy=0;strokeColor=#444444;curved=1;" edge="1" parent="1" source="140" target="162">
                    <mxGeometry width="50" height="50" relative="1" as="geometry">
                        <mxPoint x="527.7499999999975" y="29.75" as="sourcePoint"/>
                        <mxPoint x="562.2500000000025" y="82.25" as="targetPoint"/>
                    </mxGeometry>
                </mxCell>
                <mxCell id="175" value="" style="endArrow=classic;html=1;shadow=0;entryX=0;entryY=0.5;entryDx=0;entryDy=0;exitX=1;exitY=0.5;exitDx=0;exitDy=0;strokeColor=#444444;curved=1;" edge="1" parent="1" source="149" target="171">
                    <mxGeometry width="50" height="50" relative="1" as="geometry">
                        <mxPoint x="569.9999999999975" y="258" as="sourcePoint"/>
                        <mxPoint x="634.5000000000025" y="258.25" as="targetPoint"/>
                    </mxGeometry>
                </mxCell>
                <mxCell id="176" value="" style="endArrow=classic;html=1;shadow=0;exitX=1;exitY=0.5;exitDx=0;exitDy=0;strokeColor=#444444;entryX=0;entryY=0.5;entryDx=0;entryDy=0;curved=1;" edge="1" parent="1" source="122" target="140">
                    <mxGeometry width="50" height="50" relative="1" as="geometry">
                        <mxPoint x="527.7499999999989" y="29.749999999999943" as="sourcePoint"/>
                        <mxPoint x="550" y="70" as="targetPoint"/>
                    </mxGeometry>
                </mxCell>
                <mxCell id="177" value="" style="endArrow=classic;html=1;shadow=0;exitX=1;exitY=0.5;exitDx=0;exitDy=0;strokeColor=#444444;curved=1;" edge="1" parent="1" source="135">
                    <mxGeometry width="50" height="50" relative="1" as="geometry">
                        <mxPoint x="520.0000000000045" y="179.25" as="sourcePoint"/>
                        <mxPoint x="552" y="230" as="targetPoint"/>
                    </mxGeometry>
                </mxCell>
                <mxCell id="178" value="" style="endArrow=classic;html=1;shadow=0;exitX=1;exitY=0.5;exitDx=0;exitDy=0;strokeColor=#444444;entryX=0;entryY=0.5;entryDx=0;entryDy=0;curved=1;" edge="1" parent="1" source="128" target="144">
                    <mxGeometry width="50" height="50" relative="1" as="geometry">
                        <mxPoint x="533.2499999999975" y="136.75" as="sourcePoint"/>
                        <mxPoint x="567.7500000000025" y="171.75" as="targetPoint"/>
                    </mxGeometry>
                </mxCell>
                <mxCell id="179" value="" style="endArrow=classic;html=1;shadow=0;exitX=1;exitY=0.5;exitDx=0;exitDy=0;strokeColor=#444444;entryX=0;entryY=0.5;entryDx=0;entryDy=0;curved=1;" edge="1" parent="1" source="128" target="145">
                    <mxGeometry width="50" height="50" relative="1" as="geometry">
                        <mxPoint x="527.7500000000045" y="161.25000000000006" as="sourcePoint"/>
                        <mxPoint x="562.2499999999916" y="152.75" as="targetPoint"/>
                    </mxGeometry>
                </mxCell>
                <mxCell id="180" value="..." style="text;html=1;strokeColor=none;fillColor=none;align=center;verticalAlign=middle;whiteSpace=wrap;fontSize=60;opacity=80;rotation=-90;rounded=1;" vertex="1" parent="1">
                    <mxGeometry x="500" y="186.25" width="40" height="20" as="geometry"/>
                </mxCell>
                <mxCell id="181" value="..." style="text;html=1;strokeColor=none;fillColor=none;align=center;verticalAlign=middle;whiteSpace=wrap;fontSize=60;opacity=80;rotation=-90;rounded=1;" vertex="1" parent="1">
                    <mxGeometry x="500" y="95.25" width="40" height="20" as="geometry"/>
                </mxCell>
            </root>
        </mxGraphModel>
    </diagram>
</mxfile>